<?xml version="1.0" encoding="UTF-8"?><svg xmlns="http://www.w3.org/2000/svg" xmlns:xlink="http://www.w3.org/1999/xlink" fill-opacity="1" color-rendering="auto" color-interpolation="auto" stroke="black" text-rendering="auto" stroke-linecap="square" width="466" stroke-miterlimit="10" stroke-opacity="1" shape-rendering="auto" fill="black" stroke-dasharray="none" font-weight="normal" stroke-width="1" height="774" font-family="'Dialog'" font-style="normal" stroke-linejoin="miter" font-size="12px" stroke-dashoffset="0" image-rendering="auto">
  <!--Generated by ySVG 2.5-->
  <defs id="genericDefs"/>
  <g>
    <defs id="defs1">
      <clipPath clipPathUnits="userSpaceOnUse" id="clipPath1">
        <path d="M0 0 L466 0 L466 774 L0 774 L0 0 Z"/>
      </clipPath>
      <clipPath clipPathUnits="userSpaceOnUse" id="clipPath2">
        <path d="M197 -203 L663 -203 L663 571 L197 571 L197 -203 Z"/>
      </clipPath>
      <clipPath clipPathUnits="userSpaceOnUse" id="clipPath3">
        <path d="M-186.9871 -13.6747 L279.0129 -13.6747 L279.0129 760.3253 L-186.9871 760.3253 L-186.9871 -13.6747 Z"/>
      </clipPath>
    </defs>
    <g fill="white" text-rendering="geometricPrecision" shape-rendering="geometricPrecision" transform="translate(-197,203)" stroke="white">
      <rect x="197" width="466" height="774" y="-203" clip-path="url(#clipPath2)" stroke="none"/>
    </g>
    <g shape-rendering="geometricPrecision" text-rendering="geometricPrecision" transform="matrix(1,0,0,1,186.9871,13.6747)">
      <g clip-path="url(#clipPath3)">
        <svg xml:space="preserve" opacity="1" writing-mode="lr-tb" stop-color="rgb(0, 0, 0)" shape-rendering="auto" glyph-orientation-horizontal="0deg" color-profile="auto" lighting-color="rgb(255, 255, 255)" color="rgb(0, 0, 0)" font-weight="400" alignment-baseline="auto" font-style="normal" version="1.1" color-interpolation-filters="linearrgb" text-anchor="start" stroke-linecap="butt" color-interpolation="srgb" font-variant="normal" word-spacing="normal" fill-opacity="1" text-rendering="auto" clip-path="none" text-decoration="none" letter-spacing="normal" viewBox="0 0 57 65" glyph-orientation-vertical="auto" display="inline" font-size-adjust="none" overflow="visible" fill="rgb(0, 0, 0)" font-stretch="normal" stroke-dasharray="none" id="svg1.Ebene_1" stroke-miterlimit="4" stop-opacity="1" color-rendering="auto" font-size="12" pointer-events="visiblepainted" mask="none" direction="ltr" baseline-shift="baseline" enable-background="new 0 0 57 65" fill-rule="nonzero" image-rendering="auto" stroke-dashoffset="0" width="57px" marker-end="none" clip="auto" cursor="auto" stroke="none" filter="none" visibility="visible" kerning="auto" stroke-width="1" font-family="&quot;Arial&quot;,&quot;Helvetica&quot;,sans-serif" flood-opacity="1" clip-rule="nonzero" src="none" height="65px" unicode-bidi="normal" stroke-linejoin="miter" stroke-opacity="1" flood-color="rgb(0, 0, 0)" dominant-baseline="auto" marker-start="none" x="0px" marker-mid="none" y="0px">
<g>
	
		<linearGradient gradientTransform="matrix(1 0 0 1 0.3203 -3091.7656)" x1="26.3398" x2="27.5807" gradientUnits="userSpaceOnUse" y1="3115.7266" y2="3145.5239" id="svg1.SVGID_1_">
		<stop offset="0.2711" style="stop-color:#FFAB4F"/>
		<stop offset="1" style="stop-color:#FFD28F"/>
	</linearGradient>
	<path fill="url(#svg1.SVGID_1_)" d="M49.529,51.225c-4.396-4.396-10.951-5.884-12.063-6.109   V37.8H19.278c0,0,0.038,6.903,0,6.868c0,0-6.874,0.997-12.308,6.432C1.378,56.691,0.5,62.77,0.5,62.77   c0,1.938,1.575,3.492,3.523,3.492h48.51c1.947,0,3.521-1.558,3.521-3.492C56.055,62.768,54.211,55.906,49.529,51.225z" stroke-miterlimit="10" stroke="#ED9135"/>
	
		<radialGradient gradientTransform="matrix(1 0 0 1 0.3203 -3091.7656)" gradientUnits="userSpaceOnUse" r="23.425" cx="27.5835" id="svg1.face_x5F_white_1_" cy="3117.4922" fx="23.0139" fy="3115.0024">
		<stop offset="0" style="stop-color:#FFD28F"/>
		<stop offset="1" style="stop-color:#FFAB4F"/>
	</radialGradient>
	<path fill="url(#svg1.face_x5F_white_1_)" id="svg1.face_x5F_white_3_" d="M43.676,23.357   c0.086,10.2-6.738,18.52-15.25,18.586c-8.5,0.068-15.464-8.146-15.55-18.344C12.794,13.4,19.618,5.079,28.123,5.012   C36.627,4.945,43.59,13.158,43.676,23.357z" stroke-miterlimit="10" stroke="#ED9135"/>
	
		<linearGradient gradientTransform="matrix(0.275 0 0 -0.2733 -1752.8849 -3351.7349)" x1="6468.501" x2="6492.1304" gradientUnits="userSpaceOnUse" y1="-12291.5195" y2="-12384.9688" id="svg1.face_highlight_1_">
		<stop offset="0" style="stop-color:#FFFFFF;stop-opacity:0.24"/>
		<stop offset="1" style="stop-color:#FFFFFF;stop-opacity:0.16"/>
	</linearGradient>
	<path fill="url(#svg1.face_highlight_1_)" id="svg1.face_highlight_3_" d="M28.415,5.625c-6.035,0.047-10.747,4.493-12.787,10.386   c-0.664,1.919-0.294,4.043,0.98,5.629c2.73,3.398,5.729,6.283,9.461,8.088c3.137,1.518,7.535,2.385,11.893,1.247   c2.274-0.592,3.988-2.459,4.375-4.766c0.187-1.094,0.293-2.289,0.283-3.553C42.54,13.244,36.729,5.56,28.415,5.625z"/>
	<path fill="#ECECEC" d="M20.278,13.25   c0,0,5.321,7.25,15,3.75c2.729-0.563,9.058,1.035,9.058,1.035S40.68,1.865,27.289,2.744C9.403,4.125,12.058,25.678,12.058,25.678   s2.768-0.684,5.036-4.802C18.068,19.106,20.278,13.25,20.278,13.25z" id="svg1.hair_x5F_gray_3_" stroke="#9B9B9B" stroke-linecap="round" stroke-linejoin="round"/>
	
		<radialGradient gradientTransform="matrix(1 0 0 1 0.3203 -3091.7656)" id="svg1.collar_x5F_body_1_" r="32.4004" cx="14.9609" gradientUnits="userSpaceOnUse" cy="3148.9336">
		<stop offset="0" style="stop-color:#B0E8FF"/>
		<stop offset="1" style="stop-color:#74AEEE"/>
	</radialGradient>
	<path fill="url(#svg1.collar_x5F_body_1_)" d="M0.5,62.768c0,1.938,1.575,3.494,3.523,3.494   h48.51c1.947,0,3.521-1.559,3.521-3.494c0,0-1.844-6.861-6.525-11.543c-4.815-4.813-11.244-6.146-11.244-6.146   c-1.771,1.655-5.61,2.802-10.063,2.802c-4.453,0-8.292-1.146-10.063-2.802c0,0-5.755,0.586-11.189,6.021   C1.378,56.689,0.5,62.768,0.5,62.768z" id="svg1.collar_x5F_body_3_" stroke="#5491CF"/>
	
		<radialGradient gradientTransform="matrix(1 0 0 1 0.3203 -3091.7656)" id="svg1.collar_x5F_r_1_" r="9.2823" cx="31.2998" gradientUnits="userSpaceOnUse" cy="3139.0605">
		<stop offset="0" style="stop-color:#80CCFF"/>
		<stop offset="1" style="stop-color:#74AEEE"/>
	</radialGradient>
	<path fill="url(#svg1.collar_x5F_r_1_)" d="M38.159,41.381c0,0-0.574,2.369-3.013,4.441   c-2.108,1.795-5.783,2.072-5.783,2.072l3.974,6.217c0,0,2.957-1.637,5.009-3.848c1.922-2.072,1.37-5.479,1.37-5.479L38.159,41.381z   " id="svg1.collar_x5F_r_3_" stroke="#5491CF"/>
	
		<radialGradient gradientTransform="matrix(1 0 0 1 0.3203 -3091.7656)" id="svg1.collar_x5F_l_1_" r="9.2843" cx="18.9375" gradientUnits="userSpaceOnUse" cy="3139.1016">
		<stop offset="0" style="stop-color:#80CCFF"/>
		<stop offset="1" style="stop-color:#74AEEE"/>
	</radialGradient>
	<path fill="url(#svg1.collar_x5F_l_1_)" d="M18.63,41.422c0,0,0.576,2.369,3.012,4.441   c2.109,1.793,5.785,2.072,5.785,2.072l-3.974,6.217c0,0-2.957-1.637-5.007-3.85c-1.922-2.072-1.37-5.48-1.37-5.48L18.63,41.422z" id="svg1.collar_x5F_l_3_" stroke="#5491CF"/>
	
		<radialGradient gradientTransform="matrix(1 0 0 1 0.2402 -2319.0742)" id="svg1.Knob2_1_" r="0.9669" cx="27.6895" gradientUnits="userSpaceOnUse" cy="2375.2871">
		<stop offset="0" style="stop-color:#80CCFF"/>
		<stop offset="1" style="stop-color:#74AEEE"/>
	</radialGradient>
	<circle fill="url(#svg1.Knob2_1_)" r="0.584" id="svg1.Knob2_3_" cx="28.258" cy="56.254" stroke="#5491CF"/>
	
		<radialGradient gradientTransform="matrix(1 0 0 1 0.2402 -2319.0742)" id="svg1.Knob1_1_" r="0.9669" cx="27.7275" gradientUnits="userSpaceOnUse" cy="2381.5283">
		<stop offset="0" style="stop-color:#80CCFF"/>
		<stop offset="1" style="stop-color:#74AEEE"/>
	</radialGradient>
	<circle fill="url(#svg1.Knob1_1_)" r="0.584" id="svg1.Knob1_3_" cx="28.297" cy="62.499" stroke="#5491CF"/>
	
		<radialGradient gradientTransform="matrix(1 0 0 -1 0.04 64.1543)" id="svg1.path5135_1_" r="6.0918" cx="26.9917" gradientUnits="userSpaceOnUse" cy="4.1973">
		<stop offset="0" style="stop-color:#FCB57A"/>
		<stop offset="1" style="stop-color:#FF8C36"/>
	</radialGradient>
	<path fill="url(#svg1.path5135_1_)" d="M27.427,55.221c0,0-1.848,2.057-2.079,6.543   c-0.231,4.488,0,4.488,0,4.488h6.544c0,0,0.23,0.063-0.152-4.363c-0.399-4.604-2.389-6.668-2.389-6.668H27.427z" id="svg1.path5135_2_" stroke="#E55E03"/>
	
		<radialGradient gradientTransform="matrix(1 0 0 -1 0.04 64.1543)" id="svg1.path5131_1_" r="4.8472" cx="26.7456" gradientUnits="userSpaceOnUse" cy="11.9678">
		<stop offset="0" style="stop-color:#FCB57A"/>
		<stop offset="1" style="stop-color:#FF8C36"/>
	</radialGradient>
	<path fill="url(#svg1.path5131_1_)" d="M28.313,48.68h0.122l2.551,4.002   c0.517,0.953-1.204,1.797-1.453,2.549l-2.279-0.016c-0.243-0.76-2.257-1.365-1.476-2.584L28.313,48.68z" id="svg1.path5131_2_" stroke="#E55E03"/>
</g>
</svg>
      </g>
    </g>
    <g fill="rgb(208,131,36)" text-rendering="geometricPrecision" shape-rendering="geometricPrecision" transform="matrix(1,0,0,1,-197,203)" stroke="rgb(208,131,36)">
      <circle r="48.2812" clip-path="url(#clipPath2)" cx="260.7707" cy="-18.5495" stroke="none"/>
    </g>
    <g font-size="16px" stroke-linecap="butt" transform="matrix(1,0,0,1,-197,203)" fill="white" text-rendering="geometricPrecision" font-family="sans-serif" shape-rendering="geometricPrecision" stroke="white" stroke-miterlimit="1.45">
      <text x="228.7707" xml:space="preserve" y="-12.2643" clip-path="url(#clipPath2)" stroke="none">大众点评</text>
    </g>
    <g text-rendering="geometricPrecision" stroke-miterlimit="1.45" shape-rendering="geometricPrecision" transform="matrix(1,0,0,1,-197,203)" stroke-linecap="butt">
      <circle fill="none" r="48.2812" clip-path="url(#clipPath2)" cx="260.7707" cy="-18.5495"/>
    </g>
    <g fill="rgb(208,131,36)" text-rendering="geometricPrecision" shape-rendering="geometricPrecision" transform="matrix(1,0,0,1,-197,203)" stroke="rgb(208,131,36)">
      <circle r="48.2812" clip-path="url(#clipPath2)" cx="409.1321" cy="117.8304" stroke="none"/>
    </g>
    <g font-size="16px" stroke-linecap="butt" transform="matrix(1,0,0,1,-197,203)" fill="white" text-rendering="geometricPrecision" font-family="sans-serif" shape-rendering="geometricPrecision" stroke="white" stroke-miterlimit="1.45">
      <text x="369.1321" xml:space="preserve" y="124.1155" clip-path="url(#clipPath2)" stroke="none">商户公海池</text>
    </g>
    <g text-rendering="geometricPrecision" stroke-miterlimit="1.45" shape-rendering="geometricPrecision" transform="matrix(1,0,0,1,-197,203)" stroke-linecap="butt">
      <circle fill="none" r="48.2812" clip-path="url(#clipPath2)" cx="409.1321" cy="117.8304"/>
    </g>
    <g fill="rgb(208,131,36)" text-rendering="geometricPrecision" shape-rendering="geometricPrecision" transform="matrix(1,0,0,1,-197,203)" stroke="rgb(208,131,36)">
      <path d="M360.8508 262.0473 L370.5071 213.7661 L447.7571 213.7661 L457.4133 262.0473 L447.7571 310.3285 L370.5071 310.3285 Z" clip-path="url(#clipPath2)" fill-rule="evenodd" stroke="none"/>
    </g>
    <g font-size="16px" stroke-linecap="butt" transform="matrix(1,0,0,1,-197,203)" fill="white" text-rendering="geometricPrecision" font-family="sans-serif" shape-rendering="geometricPrecision" stroke="white" stroke-miterlimit="1.45">
      <text x="377.1321" xml:space="preserve" y="268.3322" clip-path="url(#clipPath2)" stroke="none">我的商户</text>
    </g>
    <g text-rendering="geometricPrecision" stroke-miterlimit="1.45" shape-rendering="geometricPrecision" transform="matrix(1,0,0,1,-197,203)" stroke-linecap="butt">
      <path fill="none" d="M360.8508 262.0473 L370.5071 213.7661 L447.7571 213.7661 L457.4133 262.0473 L447.7571 310.3285 L370.5071 310.3285 Z" fill-rule="evenodd" clip-path="url(#clipPath2)"/>
    </g>
    <g fill="rgb(208,131,36)" text-rendering="geometricPrecision" shape-rendering="geometricPrecision" transform="matrix(1,0,0,1,-197,203)" stroke="rgb(208,131,36)">
      <path d="M369.6747 -62.1326 L456.581 -62.1326 L446.9248 34.4299 L360.0184 34.4299 Z" clip-path="url(#clipPath2)" fill-rule="evenodd" stroke="none"/>
    </g>
    <g font-size="16px" stroke-linecap="butt" transform="matrix(1,0,0,1,-197,203)" fill="white" text-rendering="geometricPrecision" font-family="sans-serif" shape-rendering="geometricPrecision" stroke="white" stroke-miterlimit="1.45">
      <text x="376.2991" xml:space="preserve" y="-7.5662" clip-path="url(#clipPath2)" stroke="none">新建商户</text>
    </g>
    <g text-rendering="geometricPrecision" stroke-miterlimit="1.45" shape-rendering="geometricPrecision" transform="matrix(1,0,0,1,-197,203)" stroke-linecap="butt">
      <path fill="none" d="M369.6747 -62.1326 L456.581 -62.1326 L446.9248 34.4299 L360.0184 34.4299 Z" fill-rule="evenodd" clip-path="url(#clipPath2)"/>
    </g>
    <g fill="rgb(208,131,36)" text-rendering="geometricPrecision" shape-rendering="geometricPrecision" transform="matrix(1,0,0,1,-197,203)" stroke="rgb(208,131,36)">
      <path d="M551.0754 258.3449 L560.7317 210.0637 L637.9817 210.0637 L647.6379 258.3449 L637.9817 306.6262 L560.7317 306.6262 Z" clip-path="url(#clipPath2)" fill-rule="evenodd" stroke="none"/>
    </g>
    <g font-size="16px" stroke-linecap="butt" transform="matrix(1,0,0,1,-197,203)" fill="white" text-rendering="geometricPrecision" font-family="sans-serif" shape-rendering="geometricPrecision" stroke="white" stroke-miterlimit="1.45">
      <text x="567.3566" xml:space="preserve" y="264.6299" clip-path="url(#clipPath2)" stroke="none">商户详情</text>
    </g>
    <g text-rendering="geometricPrecision" stroke-miterlimit="1.45" shape-rendering="geometricPrecision" transform="matrix(1,0,0,1,-197,203)" stroke-linecap="butt">
      <path fill="none" d="M551.0754 258.3449 L560.7317 210.0637 L637.9817 210.0637 L647.6379 258.3449 L637.9817 306.6262 L560.7317 306.6262 Z" fill-rule="evenodd" clip-path="url(#clipPath2)"/>
    </g>
    <g fill="rgb(208,131,36)" text-rendering="geometricPrecision" shape-rendering="geometricPrecision" transform="matrix(1,0,0,1,-197,203)" stroke="rgb(208,131,36)">
      <path d="M352.257 351.1503 L480.2258 351.1503 L466.007 416.1186 L338.0383 416.1186 Z" clip-path="url(#clipPath2)" fill-rule="evenodd" stroke="none"/>
    </g>
    <g font-size="16px" stroke-linecap="butt" transform="matrix(1,0,0,1,-197,203)" fill="white" text-rendering="geometricPrecision" font-family="sans-serif" shape-rendering="geometricPrecision" stroke="white" stroke-miterlimit="1.45">
      <text x="361.1321" xml:space="preserve" y="389.9195" clip-path="url(#clipPath2)" stroke="none">新建活动记录</text>
    </g>
    <g text-rendering="geometricPrecision" stroke-miterlimit="1.45" shape-rendering="geometricPrecision" transform="matrix(1,0,0,1,-197,203)" stroke-linecap="butt">
      <path fill="none" d="M352.257 351.1503 L480.2258 351.1503 L466.007 416.1186 L338.0383 416.1186 Z" fill-rule="evenodd" clip-path="url(#clipPath2)"/>
    </g>
    <g fill="rgb(208,131,36)" text-rendering="geometricPrecision" shape-rendering="geometricPrecision" transform="matrix(1,0,0,1,-197,203)" stroke="rgb(208,131,36)">
      <path d="M359.2848 506.9282 L368.9411 458.6469 L446.1911 458.6469 L455.8473 506.9282 L446.1911 555.2095 L368.9411 555.2095 Z" clip-path="url(#clipPath2)" fill-rule="evenodd" stroke="none"/>
    </g>
    <g font-size="16px" stroke-linecap="butt" transform="matrix(1,0,0,1,-197,203)" fill="white" text-rendering="geometricPrecision" font-family="sans-serif" shape-rendering="geometricPrecision" stroke="white" stroke-miterlimit="1.45">
      <text x="375.566" xml:space="preserve" y="513.2133" clip-path="url(#clipPath2)" stroke="none">活动记录</text>
    </g>
    <g text-rendering="geometricPrecision" stroke-miterlimit="1.45" shape-rendering="geometricPrecision" transform="matrix(1,0,0,1,-197,203)" stroke-linecap="butt">
      <path fill="none" d="M359.2848 506.9282 L368.9411 458.6469 L446.1911 458.6469 L455.8473 506.9282 L446.1911 555.2095 L368.9411 555.2095 Z" fill-rule="evenodd" clip-path="url(#clipPath2)"/>
      <path fill="none" d="M385.0057 -130.4871 L302.5831 -56.2231" clip-path="url(#clipPath2)"/>
      <path d="M296.6397 -50.8681 L308.9016 -55.186 L303.326 -56.8925 L302.2078 -62.6152 Z" clip-path="url(#clipPath2)" stroke="none"/>
      <path fill="none" d="M409.1321 166.1116 L409.1321 205.7514" clip-path="url(#clipPath2)"/>
      <path d="M409.1321 213.7514 L414.1321 201.7514 L409.1321 204.7514 L404.1321 201.7514 Z" clip-path="url(#clipPath2)" stroke="none"/>
      <path fill="none" d="M309.0274 -17.0127 L357.0172 -15.4845" clip-path="url(#clipPath2)"/>
      <path d="M365.0132 -15.2298 L353.1784 -20.6092 L356.0177 -15.5163 L352.8601 -10.6143 Z" clip-path="url(#clipPath2)" stroke="none"/>
      <path fill="none" d="M411.3513 -122.5406 L409.8791 -70.1162" clip-path="url(#clipPath2)"/>
      <path d="M409.6545 -62.1194 L414.9894 -73.9743 L409.9072 -71.1158 L404.9934 -74.255 Z" clip-path="url(#clipPath2)" stroke="none"/>
      <path fill="none" d="M408.6043 34.4041 L408.7761 61.5502" clip-path="url(#clipPath2)"/>
      <path d="M408.8267 69.5501 L413.7507 57.5187 L408.7697 60.5503 L403.7509 57.582 Z" clip-path="url(#clipPath2)" stroke="none"/>
      <path fill="none" d="M457.1991 261.1115 L543.2897 259.4359" clip-path="url(#clipPath2)"/>
      <path d="M551.2882 259.2802 L539.1932 254.5147 L542.2899 259.4554 L539.3878 264.5128 Z" clip-path="url(#clipPath2)" stroke="none"/>
      <path fill="none" d="M447.9672 146.5169 L550.824 222.4948" clip-path="url(#clipPath2)"/>
      <path d="M557.2589 227.2481 L550.5775 216.0964 L550.0197 221.9007 L544.6359 224.1399 Z" clip-path="url(#clipPath2)" stroke="none"/>
      <path fill="none" d="M409.1321 310.3436 L409.1321 343.176" clip-path="url(#clipPath2)"/>
      <path d="M409.1321 351.176 L414.1321 339.176 L409.1321 342.176 L404.1321 339.176 Z" clip-path="url(#clipPath2)" stroke="none"/>
      <path fill="none" d="M408.7195 416.1133 L408.281 450.639" clip-path="url(#clipPath2)"/>
      <path d="M408.1794 458.6384 L413.3314 446.7029 L408.2937 449.6391 L403.3322 446.5759 Z" clip-path="url(#clipPath2)" stroke="none"/>
      <path fill="none" d="M599.0352 306.6006 L597.7225 503.7277 L463.7076 505.9832" clip-path="url(#clipPath2)"/>
      <path d="M455.7087 506.1178 L467.7911 510.9152 L464.7074 505.9664 L467.6228 500.9166 Z" clip-path="url(#clipPath2)" stroke="none"/>
    </g>
  </g>
</svg>
