<?xml version="1.0" encoding="utf-8"?>
<!DOCTYPE svg PUBLIC "-//W3C//DTD SVG 1.1//EN" "http://www.w3.org/Graphics/SVG/1.1/DTD/svg11.dtd">
<svg style="width:308px;height:308px;" version="1.1" id="图形" xmlns="http://www.w3.org/2000/svg" xmlns:xlink="http://www.w3.org/1999/xlink" x="0px" y="0px" width="1024px" height="1024px" viewBox="0 0 1024 1024" enable-background="new 0 0 1024 1024" xml:space="preserve">
  <path class="svgpath" data-index="path_0" fill="#ffffff" d="M710.949144 503.751129c-17.153682-4.383844 48.470945-102.271268-17.383926-146.403394-62.83714-42.11519-197.97598 40.964994-202.557322 34.096563-2.674922-4.009314 34.655288-126.449947-40.774659-137.708362C271.066649 227.000014 60.491723 505.755786 63.836911 652.830469c4.107551 180.461071 191.187367 268.733511 375.099027 247.741407C654.933363 875.912243 823.249837 772.353656 829.933049 622.60405 831.970452 577.097624 802.526863 527.149025 710.949144 503.751129zM681.735799 666.191778c-8.852622 101.159958-137.248897 183.175903-286.774399 183.175903s-263.560698-82.014922-254.708076-183.175903c8.839319-101.153818 137.235594-183.1626 286.761096-183.1626S690.575118 565.03796 681.735799 666.191778z" />
<path class="svgpath" data-index="path_1" fill="#ffffff" d="M398.661675 556.566008c-80.115666 0-147.935284 56.863079-151.464667 127.008672-3.529383 70.152756 58.558697 127.021975 138.681526 127.021975 80.115666 0 147.935284-56.870242 151.457504-127.021975C540.871561 613.429087 478.777341 556.566008 398.661675 556.566008zM349.561397 755.772003c-25.113981 0-45.462424-20.34742-45.462424-45.447075 0-25.112957 20.34742-45.460378 45.462424-45.460378 25.097608 0 45.452191 20.34742 45.452191 45.460378C395.013589 735.423559 374.659005 755.772003 349.561397 755.772003zM428.439886 684.916235c-9.601682 0-17.383926-7.78122-17.383926-17.376763s7.78122-17.383926 17.383926-17.383926c9.595542 0 17.370623 7.788383 17.370623 17.383926S438.035428 684.916235 428.439886 684.916235z" />
<path class="svgpath" data-index="path_2" fill="#ffffff" d="M916.13534 462.056518c-3.108804 0-6.263657-0.48607-9.372461-1.505283-15.786545-5.172813-24.396643-22.161742-19.22383-37.948287 2.131547-6.519484 3.910053-13.230326 5.290493-19.959587 2.444679-11.955286 3.686972-24.2718 3.686972-36.607756 0-100.082416-81.417311-181.499727-181.499727-181.499727-10.016121 0-20.064988 0.821715-29.858028 2.438539-16.378016 2.714831-31.868825-8.379854-34.583656-24.771173-2.707668-16.397459 8.385994-31.875988 24.777313-34.589796 13.026688-2.148943 26.374694-3.239787 39.663348-3.239787 133.252887 0 241.661945 108.416222 241.661945 241.661945 0 16.378016-1.64957 32.749892-4.909823 48.674583-1.831718 8.977465-4.212952 17.929348-7.058766 26.617218C940.557566 453.999005 928.786475 462.056518 916.13534 462.056518z" />
<path class="svgpath" data-index="path_3" fill="#ffffff" d="M805.019637 429.116291c-3.103688 0-6.251378-0.479931-9.367345-1.49812-15.792685-5.172813-24.402783-22.161742-19.22997-37.948287 0.781806-2.39249 1.432629-4.843308 1.925862-7.281847 0.900509-4.389984 1.359974-8.905834 1.359974-13.420661 0-36.600593-29.779234-66.38699-66.385966-66.38699-3.680832 0-7.367805 0.301875-10.955516 0.893346-16.369829 2.674922-31.868825-8.393157-34.570353-24.790616-2.707668-16.384156 8.393157-31.868825 24.777313-34.576493 6.815219-1.12359 13.801331-1.689479 20.748556-1.689479 69.778226 0 126.549208 56.770981 126.549208 126.549208 0 8.556886-0.867764 17.120936-2.569522 25.468045-0.959861 4.685719-2.202155 9.372461-3.700275 13.95278C829.454142 421.065941 817.675888 429.116291 805.019637 429.116291z" />

</svg>
