<?xml version="1.0" encoding="UTF-8"?><svg xmlns="http://www.w3.org/2000/svg" xmlns:xlink="http://www.w3.org/1999/xlink" fill-opacity="1" color-rendering="auto" color-interpolation="auto" stroke="black" text-rendering="auto" stroke-linecap="square" width="584" stroke-miterlimit="10" stroke-opacity="1" shape-rendering="auto" fill="black" stroke-dasharray="none" font-weight="normal" stroke-width="1" height="462" font-family="'Dialog'" font-style="normal" stroke-linejoin="miter" font-size="12px" stroke-dashoffset="0" image-rendering="auto">
  <!--Generated by ySVG 2.5-->
  <defs id="genericDefs"/>
  <g>
    <defs id="defs1">
      <clipPath clipPathUnits="userSpaceOnUse" id="clipPath1">
        <path d="M0 0 L584 0 L584 462 L0 462 L0 0 Z"/>
      </clipPath>
      <clipPath clipPathUnits="userSpaceOnUse" id="clipPath2">
        <path d="M275 49 L859 49 L859 511 L275 511 L275 49 Z"/>
      </clipPath>
    </defs>
    <g fill="white" text-rendering="geometricPrecision" shape-rendering="geometricPrecision" transform="translate(-275,-49)" stroke="white">
      <rect x="275" width="584" height="462" y="49" clip-path="url(#clipPath2)" stroke="none"/>
    </g>
    <g fill="rgb(203,118,12)" text-rendering="geometricPrecision" shape-rendering="geometricPrecision" transform="matrix(1,0,0,1,-275,-49)" stroke="rgb(203,118,12)">
      <path d="M520.4805 316.5833 L580.0638 257 L639.6472 316.5833 L580.0638 376.1667 Z" clip-path="url(#clipPath2)" fill-rule="evenodd" stroke="none"/>
    </g>
    <g font-size="16px" stroke-linecap="butt" transform="matrix(1,0,0,1,-275,-49)" fill="white" text-rendering="geometricPrecision" font-family="sans-serif" shape-rendering="geometricPrecision" stroke="white" stroke-miterlimit="1.45">
      <text x="540.0638" xml:space="preserve" y="322.8685" clip-path="url(#clipPath2)" stroke="none">商户公海池</text>
    </g>
    <g text-rendering="geometricPrecision" stroke-miterlimit="1.45" shape-rendering="geometricPrecision" transform="matrix(1,0,0,1,-275,-49)" stroke-linecap="butt">
      <path fill="none" d="M520.4805 316.5833 L580.0638 257 L639.6472 316.5833 L580.0638 376.1667 Z" fill-rule="evenodd" clip-path="url(#clipPath2)"/>
    </g>
    <g fill="rgb(203,118,12)" text-rendering="geometricPrecision" shape-rendering="geometricPrecision" transform="matrix(1,0,0,1,-275,-49)" stroke="rgb(203,118,12)">
      <ellipse rx="44.7326" ry="40.5596" clip-path="url(#clipPath2)" cx="580.0638" cy="158.0677" stroke="none"/>
    </g>
    <g font-size="16px" stroke-linecap="butt" transform="matrix(1,0,0,1,-275,-49)" fill="white" text-rendering="geometricPrecision" font-family="sans-serif" shape-rendering="geometricPrecision" stroke="white" stroke-miterlimit="1.45">
      <text x="548.0638" xml:space="preserve" y="164.3529" clip-path="url(#clipPath2)" stroke="none">新建商户</text>
    </g>
    <g text-rendering="geometricPrecision" stroke-miterlimit="1.45" shape-rendering="geometricPrecision" transform="matrix(1,0,0,1,-275,-49)" stroke-linecap="butt">
      <ellipse rx="44.7326" fill="none" ry="40.5596" clip-path="url(#clipPath2)" cx="580.0638" cy="158.0677"/>
    </g>
    <g fill="rgb(203,118,12)" text-rendering="geometricPrecision" shape-rendering="geometricPrecision" transform="matrix(1,0,0,1,-275,-49)" stroke="rgb(203,118,12)">
      <rect x="735.1912" width="108.4953" height="60.5873" y="434.5393" clip-path="url(#clipPath2)" stroke="none"/>
    </g>
    <g font-size="16px" stroke-linecap="butt" transform="matrix(1,0,0,1,-275,-49)" fill="white" text-rendering="geometricPrecision" font-family="sans-serif" shape-rendering="geometricPrecision" stroke="white" stroke-miterlimit="1.45">
      <text x="757.4388" xml:space="preserve" y="471.1182" clip-path="url(#clipPath2)" stroke="none">商户详情</text>
    </g>
    <g text-rendering="geometricPrecision" stroke-miterlimit="1.45" shape-rendering="geometricPrecision" transform="matrix(1,0,0,1,-275,-49)" stroke-linecap="butt">
      <rect fill="none" x="735.1912" width="108.4953" height="60.5873" y="434.5393" clip-path="url(#clipPath2)"/>
    </g>
    <g fill="rgb(203,118,12)" text-rendering="geometricPrecision" shape-rendering="geometricPrecision" transform="matrix(1,0,0,1,-275,-49)" stroke="rgb(203,118,12)">
      <ellipse rx="44.7326" ry="40.5596" clip-path="url(#clipPath2)" cx="402.0638" cy="158.0677" stroke="none"/>
    </g>
    <g font-size="16px" stroke-linecap="butt" transform="matrix(1,0,0,1,-275,-49)" fill="white" text-rendering="geometricPrecision" font-family="sans-serif" shape-rendering="geometricPrecision" stroke="white" stroke-miterlimit="1.45">
      <text x="370.0638" xml:space="preserve" y="164.3529" clip-path="url(#clipPath2)" stroke="none">大众点评</text>
    </g>
    <g text-rendering="geometricPrecision" stroke-miterlimit="1.45" shape-rendering="geometricPrecision" transform="matrix(1,0,0,1,-275,-49)" stroke-linecap="butt">
      <ellipse rx="44.7326" fill="none" ry="40.5596" clip-path="url(#clipPath2)" cx="402.0638" cy="158.0677"/>
    </g>
    <g fill="rgb(203,118,12)" text-rendering="geometricPrecision" shape-rendering="geometricPrecision" transform="matrix(1,0,0,1,-275,-49)" stroke="rgb(203,118,12)">
      <rect x="525.8162" width="108.4953" height="60.5873" y="434.5393" clip-path="url(#clipPath2)" stroke="none"/>
    </g>
    <g font-size="16px" stroke-linecap="butt" transform="matrix(1,0,0,1,-275,-49)" fill="white" text-rendering="geometricPrecision" font-family="sans-serif" shape-rendering="geometricPrecision" stroke="white" stroke-miterlimit="1.45">
      <text x="548.0638" xml:space="preserve" y="471.1182" clip-path="url(#clipPath2)" stroke="none">活动记录</text>
    </g>
    <g text-rendering="geometricPrecision" stroke-miterlimit="1.45" shape-rendering="geometricPrecision" transform="matrix(1,0,0,1,-275,-49)" stroke-linecap="butt">
      <rect fill="none" x="525.8162" width="108.4953" height="60.5873" y="434.5393" clip-path="url(#clipPath2)"/>
    </g>
    <g fill="rgb(203,118,12)" text-rendering="geometricPrecision" shape-rendering="geometricPrecision" transform="matrix(1,0,0,1,-275,-49)" stroke="rgb(203,118,12)">
      <path d="M342.4805 316.5833 L402.0638 257 L461.6472 316.5833 L402.0638 376.1667 Z" clip-path="url(#clipPath2)" fill-rule="evenodd" stroke="none"/>
    </g>
    <g font-size="16px" stroke-linecap="butt" transform="matrix(1,0,0,1,-275,-49)" fill="white" text-rendering="geometricPrecision" font-family="sans-serif" shape-rendering="geometricPrecision" stroke="white" stroke-miterlimit="1.45">
      <text x="370.0638" xml:space="preserve" y="322.8685" clip-path="url(#clipPath2)" stroke="none">我的商户</text>
    </g>
    <g text-rendering="geometricPrecision" stroke-miterlimit="1.45" shape-rendering="geometricPrecision" transform="matrix(1,0,0,1,-275,-49)" stroke-linecap="butt">
      <path fill="none" d="M342.4805 316.5833 L402.0638 257 L461.6472 316.5833 L402.0638 376.1667 Z" fill-rule="evenodd" clip-path="url(#clipPath2)"/>
      <path fill="none" d="M580.0638 198.6273 L580.0638 249.0006" clip-path="url(#clipPath2)"/>
      <path d="M580.0638 257.0006 L585.0638 245.0006 L580.0638 248.0006 L575.0638 245.0006 Z" clip-path="url(#clipPath2)" stroke="none"/>
      <path fill="none" d="M639.6406 316.5833 L789.4388 316.5833 L789.4388 426.5393" clip-path="url(#clipPath2)"/>
      <path d="M789.4388 434.5393 L794.4388 422.5393 L789.4388 425.5393 L784.4388 422.5393 Z" clip-path="url(#clipPath2)" stroke="none"/>
      <path fill="none" d="M580.0638 376.1945 L580.0638 426.5393" clip-path="url(#clipPath2)"/>
      <path d="M580.0638 434.5393 L585.0638 422.5393 L580.0638 425.5393 L575.0638 422.5393 Z" clip-path="url(#clipPath2)" stroke="none"/>
      <path fill="none" d="M402.0638 198.6273 L402.0638 249.0006" clip-path="url(#clipPath2)"/>
      <path d="M402.0638 257.0006 L407.0638 245.0006 L402.0638 248.0006 L397.0638 245.0006 Z" clip-path="url(#clipPath2)" stroke="none"/>
      <path fill="none" d="M342.5003 316.5833 L290.8133 316.5833 L290.8133 316.5833 L290.8133 64.833 L789.4388 64.833 L789.4388 426.5393" clip-path="url(#clipPath2)"/>
      <path d="M789.4388 434.5393 L794.4388 422.5393 L789.4388 425.5393 L784.4388 422.5393 Z" clip-path="url(#clipPath2)" stroke="none"/>
      <path fill="none" d="M402.0638 376.1521 L402.0638 382.2083 L402.0638 466.7791 L517.8436 466.7791" clip-path="url(#clipPath2)"/>
      <path d="M525.8436 466.7791 L513.8436 461.7791 L516.8436 466.7791 L513.8436 471.7791 Z" clip-path="url(#clipPath2)" stroke="none"/>
    </g>
  </g>
</svg>
